<svg width="1920" height="1920" viewBox="0 0 1920 1041" fill="none" xmlns="http://www.w3.org/2000/svg">
<rect opacity="0.81" y="2" width="1920" height="1037" fill="#6743EE"/>
<g clip-path="url(#clip0_2801_108)">
<g clip-path="url(#clip1_2801_108)">
<path opacity="0.33" d="M895.165 32.304C405.54 74.688 263.383 15.984 126.029 32.304C-82.1641 57.168 -240.65 28.656 -240.65 28.656V0H2160.65V28.656C2160.65 28.656 2011.53 41.184 1932.77 42.72C1854 44.304 1781.96 36.816 1750.75 32.112C1694.8 23.808 1549.04 4.176 1428.01 2.256C1306.99 0.336 941.75 28.32 895.165 32.304Z" fill="white"/>
<path opacity="0.66" d="M1521.9 32.304C1412.65 32.304 1336.52 21.168 1211.9 13.536C1143.22 9.36 850.981 8.688 601.966 32.304C352.951 55.92 381.767 15.792 243.692 32.304C37.1805 56.784 -240.65 19.104 -240.65 19.104V0H2160.65V17.52C2160.65 17.52 2092.93 8.64 1939.49 8.64C1704.88 8.688 1622.04 32.304 1521.9 32.304Z" fill="white"/>
<path d="M1598.99 13.872C1118.73 -13.728 960.24 45.312 650.232 23.232C340.465 0.864001 340.465 2.592 203.11 9.888C66.7165 17.184 77.0421 21.552 -24.773 25.2C-171.973 30.576 -240.65 0 -240.65 0H2160.65C2160.65 0 2136.88 19.632 1959.9 23.088C1782.93 26.544 1751.47 22.56 1598.99 13.872Z" fill="white"/>
</g>
</g>
<g clip-path="url(#clip2_2801_108)">
<g clip-path="url(#clip3_2801_108)">
<path opacity="0.33" d="M1011.88 1011.51C1403.63 973.542 1517.37 1026.13 1627.27 1011.51C1793.84 989.237 1920.65 1014.78 1920.65 1014.78V1040.45H-0.650024V1014.78C-0.650024 1014.78 118.663 1003.56 181.681 1002.18C244.7 1000.76 302.339 1007.47 327.316 1011.68C372.082 1019.12 488.705 1036.71 585.539 1038.43C682.372 1040.15 974.602 1015.08 1011.88 1011.51Z" fill="white"/>
<path opacity="0.66" d="M510.416 1011.51C597.835 1011.51 658.74 1021.49 758.456 1028.32C813.405 1032.07 1047.23 1032.67 1246.47 1011.51C1445.7 990.355 1422.65 1026.3 1533.12 1011.51C1698.36 989.581 1920.65 1023.34 1920.65 1023.34V1040.45H-0.650024V1024.76C-0.650024 1024.76 53.5306 1032.71 176.302 1032.71C364.013 1032.67 430.298 1011.51 510.416 1011.51Z" fill="white"/>
<path d="M448.742 1028.02C833.002 1052.75 959.808 999.858 1207.85 1019.64C1455.7 1039.68 1455.7 1038.13 1565.59 1031.59C1674.72 1025.06 1666.46 1021.14 1747.93 1017.88C1865.7 1013.06 1920.65 1040.45 1920.65 1040.45H-0.650024C-0.650024 1040.45 18.3708 1022.86 159.971 1019.77C301.57 1016.67 326.74 1020.24 448.742 1028.02Z" fill="white"/>
</g>
</g>
<defs>
<clipPath id="clip0_2801_108">
<rect width="1920" height="48" fill="white"/>
</clipPath>
<clipPath id="clip1_2801_108">
<rect width="2401.3" height="48" fill="white" transform="translate(-240.65)"/>
</clipPath>
<clipPath id="clip2_2801_108">
<rect width="1920" height="43" fill="white" transform="matrix(-1 0 0 -1 1920 1040.45)"/>
</clipPath>
<clipPath id="clip3_2801_108">
<rect width="1921.3" height="43" fill="white" transform="matrix(-1 0 0 -1 1920.65 1040.45)"/>
</clipPath>
</defs>
</svg>
